<svg id="svg" version="1.1" width="400" height="400" viewBox="0 0 400 400" xmlns="http://www.w3.org/2000/svg" xmlns:xlink="http://www.w3.org/1999/xlink" ><g id="svgg"><path id="path0" d="M31.974 0.294 C 15.451 2.821,2.717 15.601,0.293 32.092 C -0.155 35.141,-0.155 364.859,0.293 367.908 C 2.725 384.453,15.547 397.275,32.092 399.707 C 35.141 400.155,364.859 400.155,367.908 399.707 C 384.453 397.275,397.275 384.453,399.707 367.908 C 400.155 364.859,400.155 35.141,399.707 32.092 C 397.275 15.547,384.453 2.725,367.908 0.293 C 365.069 -0.124,34.704 -0.123,31.974 0.294 M366.394 25.730 C 370.224 27.151,373.083 30.072,374.340 33.849 L 374.777 35.162 374.827 67.557 L 374.876 99.953 200.000 99.953 L 25.123 99.953 25.173 67.464 L 25.223 34.974 25.730 33.606 C 27.343 29.259,31.161 25.977,35.443 25.258 C 35.701 25.215,109.962 25.189,200.469 25.201 L 365.026 25.223 366.394 25.730 M49.883 62.447 L 49.883 75.012 62.447 75.012 L 75.012 75.012 75.012 62.447 L 75.012 49.883 62.447 49.883 L 49.883 49.883 49.883 62.447 M99.953 62.447 L 99.953 75.012 112.518 75.012 L 125.082 75.012 125.082 62.447 L 125.082 49.883 112.518 49.883 L 99.953 49.883 99.953 62.447 M324.988 62.447 L 324.988 75.012 337.553 75.012 L 350.117 75.012 350.117 62.447 L 350.117 49.883 337.553 49.883 L 324.988 49.883 324.988 62.447 M374.825 245.054 L 374.777 365.026 374.270 366.394 C 372.829 370.278,369.842 373.169,366.057 374.342 L 364.651 374.777 200.000 374.777 L 35.349 374.777 33.943 374.342 C 30.158 373.169,27.171 370.278,25.730 366.394 L 25.223 365.026 25.175 245.054 L 25.127 125.082 200.000 125.082 L 374.873 125.082 374.825 245.054 M329.489 151.149 C 329.231 151.232,328.751 151.307,328.423 151.317 C 328.094 151.328,327.588 151.433,327.298 151.552 C 327.007 151.671,326.610 151.799,326.414 151.837 C 325.853 151.944,321.073 154.403,320.156 155.056 C 319.843 155.279,319.480 155.462,319.350 155.462 C 319.044 155.462,317.300 156.580,317.300 156.776 C 317.300 156.859,316.688 157.370,315.940 157.913 C 315.062 158.549,298.194 175.274,268.354 205.093 L 222.128 251.287 139.522 251.335 L 56.915 251.383 55.462 252.077 C 48.123 255.581,49.502 266.514,57.465 267.964 C 58.250 268.107,80.692 268.167,133.649 268.167 C 174.938 268.167,208.720 268.189,208.720 268.216 C 208.720 268.243,206.906 277.335,204.688 288.420 C 201.853 302.591,200.656 308.946,200.656 309.826 C 200.656 314.290,204.082 317.849,208.533 318.008 C 210.806 318.089,252.411 309.868,254.424 308.940 C 255.618 308.390,357.992 206.355,360.487 203.230 C 376.644 182.981,362.841 152.347,337.131 151.393 C 335.506 151.332,334.177 151.225,334.177 151.153 C 334.177 150.971,330.059 150.968,329.489 151.149 M338.678 168.502 C 347.335 170.509,352.484 179.298,349.904 187.665 C 348.882 190.980,347.979 192.132,340.569 199.583 L 334.083 206.104 323.395 195.411 L 312.707 184.717 319.269 178.143 C 327.095 170.304,328.131 169.521,331.912 168.591 C 333.704 168.150,336.973 168.107,338.678 168.502 M284.281 255.860 L 246.481 293.601 233.193 296.259 C 225.884 297.721,219.886 298.897,219.862 298.872 C 219.839 298.848,221.014 292.858,222.474 285.560 L 225.129 272.293 262.916 234.505 L 300.703 196.718 311.392 207.418 L 322.082 218.118 284.281 255.860 M57.187 201.474 C 49.419 203.148,48.251 213.866,55.462 217.309 L 56.915 218.003 150.203 218.051 C 253.318 218.103,244.613 218.206,246.762 216.918 C 253.130 213.100,251.573 203.214,244.334 201.508 C 242.728 201.129,58.943 201.096,57.187 201.474 M57.788 301.374 C 49.609 302.435,47.985 313.679,55.482 317.347 L 56.728 317.956 108.486 318.011 C 166.334 318.072,161.451 318.185,163.685 316.741 C 170.174 312.546,167.826 302.362,160.140 301.365 C 158.416 301.141,59.516 301.150,57.788 301.374 " stroke="none" fill="#7c7c7c" fill-rule="evenodd"></path><path id="path1" d="" stroke="none" fill="#807c7c" fill-rule="evenodd"></path><path id="path2" d="" stroke="none" fill="#807c7c" fill-rule="evenodd"></path><path id="path3" d="" stroke="none" fill="#807c7c" fill-rule="evenodd"></path><path id="path4" d="" stroke="none" fill="#807c7c" fill-rule="evenodd"></path></g></svg>