<svg id="svg" version="1.1" width="400" height="400" viewBox="0 0 400 400" xmlns="http://www.w3.org/2000/svg" xmlns:xlink="http://www.w3.org/1999/xlink" ><g id="svgg"><path id="path0" d="M67.135 0.122 C 31.528 3.573,5.001 29.256,0.340 64.791 C -0.025 67.571,-0.025 332.429,0.340 335.209 C 4.922 370.146,31.239 396.127,65.677 399.713 C 69.879 400.150,330.121 400.150,334.323 399.713 C 368.761 396.127,395.078 370.146,399.660 335.209 C 400.025 332.429,400.025 67.571,399.660 64.791 C 395.813 35.461,376.828 12.316,349.290 3.386 C 345.388 2.120,341.837 1.322,336.118 0.426 C 334.268 0.136,70.071 -0.162,67.135 0.122 M332.808 25.792 C 354.573 28.627,371.093 45.181,374.255 67.323 C 374.776 70.972,374.776 329.028,374.255 332.677 C 371.093 354.819,354.573 371.373,332.808 374.208 C 329.435 374.647,70.565 374.647,67.192 374.208 C 45.427 371.373,28.907 354.819,25.745 332.677 C 25.224 329.028,25.224 70.972,25.745 67.323 C 28.892 45.285,45.308 28.745,66.948 25.810 C 70.051 25.389,329.580 25.372,332.808 25.792 M195.687 80.940 C 165.607 83.292,141.850 105.989,138.287 135.778 C 137.897 139.043,137.839 144.504,138.180 145.898 C 140.555 155.600,152.551 158.969,159.604 151.916 C 162.348 149.173,163.214 146.888,163.428 141.827 C 164.555 115.254,192.010 98.563,215.804 109.985 C 228.313 115.989,236.452 128.724,236.538 142.429 C 236.603 152.743,232.313 158.756,214.065 173.933 C 195.631 189.263,189.421 197.674,187.630 209.737 C 187.201 212.626,187.196 257.013,187.625 258.704 C 190.487 270.002,206.254 271.807,211.315 261.416 C 212.840 258.286,212.725 260.267,212.839 235.162 C 212.952 210.235,212.821 212.593,214.247 209.881 C 216.410 205.769,220.060 202.167,232.545 191.823 C 254.394 173.722,262.070 160.943,262.044 142.710 C 261.993 106.937,231.090 78.170,195.687 80.940 M196.648 286.852 C 184.187 289.524,179.390 304.917,188.163 314.081 C 197.104 323.420,212.844 319.199,215.876 306.650 C 218.664 295.112,208.230 284.368,196.648 286.852 " stroke="none" fill="#7c7c7c" fill-rule="evenodd"></path><path id="path1" d="" stroke="none" fill="#807c7c" fill-rule="evenodd"></path><path id="path2" d="" stroke="none" fill="#807c7c" fill-rule="evenodd"></path><path id="path3" d="" stroke="none" fill="#807c7c" fill-rule="evenodd"></path><path id="path4" d="" stroke="none" fill="#807c7c" fill-rule="evenodd"></path></g></svg>