<?xml version="1.0" encoding="iso-8859-1"?>
<!-- Generator: Adobe Illustrator 19.0.0, SVG Export Plug-In . SVG Version: 6.00 Build 0)  -->
<svg version="1.1" id="Capa_1" xmlns="http://www.w3.org/2000/svg" xmlns:xlink="http://www.w3.org/1999/xlink" x="0px" y="0px"
	 viewBox="0 0 512.001 512.001" style="enable-background:new 0 0 512.001 512.001;" xml:space="preserve">
<path style="fill:#F5F1EF;" d="M420.938,503.32L420.938,503.32c-23.968,0-43.405-19.437-43.405-43.405V60.593H47.658v399.322
	c0,23.968,19.437,43.405,43.405,43.405H420.938z"/>
<g>
	<polygon style="fill:#FFC117;" points="247.319,182.126 247.319,95.317 282.043,95.317 212.596,8.508 143.148,95.317 
		177.872,95.317 177.872,182.126 	"/>
	<rect x="177.872" y="216.85" style="fill:#FFC117;" width="69.447" height="34.724"/>
</g>
<g>
	<polygon style="opacity:0.3;fill:#E97424;enable-background:new    ;" points="239.68,42.355 208.116,182.126 247.319,182.126 
		247.319,95.317 282.043,95.317 	"/>
	<polygon style="opacity:0.3;fill:#E97424;enable-background:new    ;" points="247.319,251.573 247.319,216.85 200.278,216.85 
		192.43,251.573 	"/>
</g>
<path style="fill:#1588C9;" d="M377.533,294.978h86.809l0,0v164.937c0,23.968-19.437,43.405-43.405,43.405l0,0
	c-23.968,0-43.405-19.437-43.405-43.405V294.978L377.533,294.978z"/>
<path style="fill:#DEDAD8;" d="M377.533,459.915V60.593h-54.594C323.251,240.141,215.113,402.1,49.152,470.627
	c4.853,19.193,22.11,32.658,41.911,32.692h329.875C396.97,503.32,377.533,483.892,377.533,459.915z"/>
<path d="M177.872,260.254h69.447c4.792,0,8.681-3.889,8.681-8.681V216.85c0-4.792-3.889-8.681-8.681-8.681h-69.447
	c-4.792,0-8.681,3.889-8.681,8.681v34.724C169.191,256.374,173.08,260.254,177.872,260.254z M186.553,225.531h52.085v17.362h-52.085
	V225.531z"/>
<path d="M377.533,51.912H258.44l-39.064-48.83c-3.264-3.741-8.941-4.132-12.691-0.868c-0.313,0.269-0.599,0.564-0.868,0.868
	l-39.064,48.83H47.658c-4.792,0-8.681,3.889-8.681,8.681v399.322c0.026,28.751,23.334,52.059,52.085,52.085h329.875
	c28.751-0.026,52.059-23.334,52.085-52.085V294.978c0-4.792-3.889-8.681-8.681-8.681h-78.128V60.593
	C386.214,55.801,382.325,51.912,377.533,51.912z M212.596,22.397l51.382,64.239h-16.659c-4.792,0-8.681,3.889-8.681,8.681v78.128
	h-52.085V95.317c0-4.792-3.889-8.681-8.681-8.681h-16.659L212.596,22.397z M56.339,459.915V69.274h96.523l-16.494,20.617
	c-2.995,3.741-2.396,9.202,1.354,12.205c1.537,1.233,3.455,1.901,5.426,1.901h26.043v78.128c0,4.792,3.889,8.681,8.681,8.681h69.447
	c4.792,0,8.681-3.889,8.681-8.681v-78.128h26.043c4.792,0,8.681-3.88,8.681-8.681c0-1.971-0.668-3.889-1.901-5.426l-16.494-20.617
	h96.523v390.641c0,12.83,4.766,25.201,13.369,34.724H91.063C71.887,494.639,56.339,479.091,56.339,459.915z M455.661,303.659
	v156.256c0,19.176-15.548,34.724-34.724,34.724s-34.724-15.548-34.724-34.724V303.659H455.661z"/>
<rect x="108.425" y="303.659" width="86.809" height="17.362"/>
<rect x="108.425" y="347.063" width="208.342" height="17.362"/>
<rect x="108.425" y="390.468" width="208.342" height="17.362"/>
<rect x="299.405" y="451.234" width="17.362" height="17.362"/>
<rect x="264.681" y="451.234" width="17.362" height="17.362"/>
<g>
</g>
<g>
</g>
<g>
</g>
<g>
</g>
<g>
</g>
<g>
</g>
<g>
</g>
<g>
</g>
<g>
</g>
<g>
</g>
<g>
</g>
<g>
</g>
<g>
</g>
<g>
</g>
<g>
</g>
</svg>
