<svg id="svg" version="1.1" width="400" height="400" viewBox="0 0 400 400" xmlns="http://www.w3.org/2000/svg" xmlns:xlink="http://www.w3.org/1999/xlink" ><g id="svgg"><path id="path0" d="M31.974 0.294 C 15.451 2.821,2.717 15.601,0.293 32.092 C -0.155 35.141,-0.155 364.859,0.293 367.908 C 2.725 384.453,15.547 397.275,32.092 399.707 C 33.762 399.953,36.393 400.000,48.360 400.000 L 62.635 400.000 62.635 387.441 L 62.635 374.883 48.898 374.830 L 35.162 374.777 33.849 374.340 C 30.072 373.083,27.151 370.224,25.730 366.394 L 25.223 365.026 25.175 245.054 L 25.127 125.082 200.000 125.082 L 374.873 125.082 374.825 245.054 L 374.777 365.026 374.270 366.394 C 372.849 370.224,369.928 373.083,366.151 374.340 L 364.838 374.777 351.102 374.830 L 337.365 374.883 337.365 387.441 L 337.365 400.000 351.640 400.000 C 363.607 400.000,366.238 399.953,367.908 399.707 C 384.453 397.275,397.275 384.453,399.707 367.908 C 400.155 364.859,400.155 35.141,399.707 32.092 C 397.275 15.547,384.453 2.725,367.908 0.293 C 365.069 -0.124,34.704 -0.123,31.974 0.294 M366.394 25.730 C 370.224 27.151,373.083 30.072,374.340 33.849 L 374.777 35.162 374.827 67.557 L 374.876 99.953 200.000 99.953 L 25.123 99.953 25.173 67.464 L 25.223 34.974 25.730 33.606 C 27.343 29.259,31.161 25.977,35.443 25.258 C 35.701 25.215,109.962 25.189,200.469 25.201 L 365.026 25.223 366.394 25.730 M49.883 62.447 L 49.883 75.012 62.447 75.012 L 75.012 75.012 75.012 62.447 L 75.012 49.883 62.447 49.883 L 49.883 49.883 49.883 62.447 M99.953 62.447 L 99.953 75.012 112.518 75.012 L 125.082 75.012 125.082 62.447 L 125.082 49.883 112.518 49.883 L 99.953 49.883 99.953 62.447 M324.988 62.447 L 324.988 75.012 337.553 75.012 L 350.117 75.012 350.117 62.447 L 350.117 49.883 337.553 49.883 L 324.988 49.883 324.988 62.447 M197.093 162.692 C 196.423 162.836,195.157 163.303,194.280 163.729 L 192.686 164.505 160.571 196.598 L 128.457 228.690 137.365 237.599 L 146.273 246.507 166.807 225.973 L 187.342 205.439 187.342 265.307 L 187.342 325.176 200.000 325.176 L 212.658 325.176 212.658 265.307 L 212.658 205.439 233.146 225.926 L 253.634 246.414 262.542 237.505 L 271.449 228.595 239.475 196.644 L 207.501 164.693 205.720 163.824 C 202.905 162.451,199.995 162.069,197.093 162.692 M99.953 363.308 C 99.953 388.514,99.964 389.292,100.323 390.697 C 101.434 395.039,105.028 398.605,109.416 399.717 C 111.116 400.148,288.884 400.148,290.584 399.717 C 294.972 398.605,298.566 395.039,299.677 390.697 C 300.036 389.292,300.047 388.514,300.047 363.308 L 300.047 337.365 287.482 337.365 L 274.918 337.365 274.918 356.118 L 274.918 374.871 200.000 374.871 L 125.082 374.871 125.082 356.118 L 125.082 337.365 112.518 337.365 L 99.953 337.365 99.953 363.308 " stroke="none" fill="#7c7c7c" fill-rule="evenodd"></path><path id="path1" d="" stroke="none" fill="#807c7c" fill-rule="evenodd"></path><path id="path2" d="" stroke="none" fill="#807c7c" fill-rule="evenodd"></path><path id="path3" d="" stroke="none" fill="#807c7c" fill-rule="evenodd"></path><path id="path4" d="" stroke="none" fill="#807c7c" fill-rule="evenodd"></path></g></svg>