<svg id="svg" version="1.1" width="400" height="450.10615711252655" viewBox="0 0 400 450.10615711252655" xmlns="http://www.w3.org/2000/svg" xmlns:xlink="http://www.w3.org/1999/xlink" ><g id="svgg"><path id="path0" d="M30.800 0.291 C 30.030 0.382,29.229 0.624,29.020 0.829 C 28.811 1.033,28.226 1.200,27.720 1.200 C 27.214 1.200,26.800 1.380,26.800 1.600 C 26.800 1.820,26.344 2.000,25.787 2.000 C 25.231 2.000,24.671 2.270,24.545 2.600 C 24.418 2.930,23.884 3.200,23.357 3.200 C 22.831 3.200,22.400 3.380,22.400 3.600 C 22.400 3.820,22.040 4.000,21.600 4.000 C 21.160 4.000,20.800 4.180,20.800 4.400 C 20.800 4.620,20.440 4.800,20.000 4.800 C 19.560 4.800,19.200 4.980,19.200 5.200 C 19.200 5.420,18.964 5.600,18.675 5.600 C 18.387 5.600,17.764 5.960,17.292 6.400 C 16.820 6.840,16.337 7.200,16.220 7.200 C 15.591 7.200,9.823 12.802,8.189 15.000 C 7.535 15.879,6.685 16.948,6.300 17.375 C 5.915 17.802,5.600 18.387,5.600 18.675 C 5.600 18.964,5.420 19.200,5.200 19.200 C 4.980 19.200,4.800 19.560,4.800 20.000 C 4.800 20.440,4.620 20.800,4.400 20.800 C 4.180 20.800,4.000 21.149,4.000 21.576 C 4.000 22.003,3.820 22.464,3.600 22.600 C 3.380 22.736,3.200 23.119,3.200 23.452 C 3.200 23.785,2.930 24.327,2.600 24.657 C 2.270 24.987,2.000 25.594,2.000 26.005 C 2.000 26.416,1.820 26.864,1.600 27.000 C 1.380 27.136,1.200 27.762,1.200 28.390 C 1.200 29.019,0.975 29.608,0.700 29.700 C -0.036 29.945,-0.036 428.524,0.700 429.260 C 0.975 429.535,1.200 430.174,1.200 430.680 C 1.200 431.186,1.380 431.600,1.600 431.600 C 1.820 431.600,2.000 431.966,2.000 432.413 C 2.000 432.859,2.270 433.329,2.600 433.455 C 2.930 433.582,3.200 434.026,3.200 434.443 C 3.200 434.859,3.380 435.200,3.600 435.200 C 3.820 435.200,4.000 435.560,4.000 436.000 C 4.000 436.440,4.150 436.800,4.332 436.800 C 4.515 436.800,4.910 437.295,5.209 437.900 C 5.924 439.344,11.062 444.400,11.814 444.400 C 12.136 444.400,12.400 444.580,12.400 444.800 C 12.400 445.020,12.670 445.200,13.000 445.200 C 13.330 445.200,13.600 445.359,13.600 445.553 C 13.600 445.748,13.915 446.012,14.300 446.142 C 14.685 446.271,15.270 446.556,15.600 446.774 C 16.735 447.526,19.751 448.800,20.395 448.800 C 20.750 448.800,21.265 449.025,21.540 449.300 C 21.906 449.666,24.125 449.800,29.800 449.800 C 35.475 449.800,37.694 449.666,38.060 449.300 C 38.335 449.025,38.831 448.800,39.162 448.800 C 40.009 448.800,44.400 446.729,44.400 446.330 C 44.400 446.148,44.760 446.000,45.200 446.000 C 45.640 446.000,46.000 445.820,46.000 445.600 C 46.000 445.380,46.270 445.200,46.600 445.200 C 46.930 445.200,47.200 445.050,47.200 444.868 C 47.200 444.685,47.695 444.280,48.300 443.968 C 48.905 443.655,50.361 442.455,51.535 441.300 C 52.709 440.145,53.834 439.200,54.035 439.200 C 54.236 439.200,54.400 439.020,54.400 438.800 C 54.400 438.580,54.586 438.400,54.813 438.400 C 55.392 438.400,57.999 435.733,57.707 435.440 C 57.575 435.308,57.765 435.200,58.130 435.200 C 58.854 435.200,59.755 434.494,63.105 431.300 C 64.316 430.145,65.474 429.200,65.677 429.200 C 65.881 429.200,65.936 429.020,65.800 428.800 C 65.664 428.580,65.888 428.400,66.298 428.400 C 67.124 428.400,70.000 425.950,70.000 425.246 C 70.000 425.001,70.225 424.797,70.500 424.793 C 71.047 424.785,72.871 423.384,75.179 421.200 C 75.993 420.430,77.349 419.260,78.193 418.600 C 79.038 417.940,80.284 416.857,80.964 416.193 C 81.644 415.530,82.830 414.546,83.600 414.007 C 85.414 412.736,86.000 412.156,86.000 411.629 C 86.000 411.393,86.230 411.200,86.512 411.200 C 86.793 411.200,87.283 410.840,87.600 410.400 C 87.917 409.960,88.407 409.600,88.688 409.600 C 88.970 409.600,89.200 409.420,89.200 409.200 C 89.200 408.980,89.372 408.800,89.581 408.800 C 90.180 408.800,94.385 404.699,94.160 404.335 C 94.049 404.156,94.208 404.105,94.513 404.222 C 94.821 404.340,95.772 403.759,96.649 402.917 C 97.519 402.083,99.124 400.685,100.215 399.811 C 101.307 398.936,102.650 397.759,103.200 397.195 C 103.750 396.631,104.830 395.741,105.600 395.218 C 106.370 394.695,107.949 393.306,109.108 392.133 C 110.268 390.960,111.348 390.000,111.508 390.000 C 111.669 389.999,112.340 389.546,113.000 388.992 C 114.791 387.489,118.367 384.323,119.429 383.300 C 119.943 382.805,120.486 382.400,120.635 382.400 C 120.784 382.400,121.197 382.080,121.553 381.689 C 121.909 381.297,123.010 380.355,124.000 379.594 C 126.352 377.787,126.800 377.345,126.800 376.829 C 126.800 376.593,127.070 376.400,127.400 376.400 C 127.730 376.400,128.000 376.259,128.000 376.086 C 128.000 375.914,128.553 375.446,129.230 375.046 C 129.906 374.647,131.211 373.570,132.130 372.653 C 133.048 371.737,134.517 370.450,135.393 369.793 C 137.455 368.248,140.627 365.102,140.505 364.723 C 140.452 364.561,140.636 364.516,140.912 364.622 C 141.532 364.860,145.687 361.032,145.288 360.590 C 145.129 360.415,145.205 360.389,145.455 360.531 C 145.705 360.674,146.132 360.523,146.404 360.196 C 146.676 359.868,147.165 359.600,147.492 359.600 C 147.846 359.600,147.996 359.366,147.863 359.020 C 147.723 358.655,147.833 358.515,148.161 358.640 C 148.448 358.750,149.205 358.244,149.844 357.516 C 150.484 356.788,151.636 355.748,152.404 355.205 C 153.172 354.662,154.177 353.853,154.639 353.409 C 155.100 352.964,156.171 352.060,157.019 351.400 C 157.868 350.740,159.331 349.435,160.270 348.500 C 161.210 347.565,162.072 346.800,162.185 346.800 C 162.557 346.800,164.157 345.436,166.407 343.200 C 167.625 341.990,169.119 340.740,169.729 340.423 C 170.338 340.105,171.624 339.101,172.587 338.192 C 173.549 337.283,175.010 336.013,175.833 335.369 C 176.655 334.726,177.887 333.660,178.570 333.000 C 179.252 332.340,180.439 331.329,181.206 330.753 C 181.972 330.178,183.320 329.007,184.200 328.151 C 185.080 327.296,186.430 326.158,187.200 325.622 C 187.970 325.086,189.576 323.692,190.770 322.524 C 191.963 321.356,193.094 320.400,193.283 320.400 C 193.472 320.400,194.231 319.815,194.971 319.100 C 199.954 314.280,200.338 314.272,204.869 318.900 C 205.676 319.725,206.531 320.400,206.769 320.400 C 207.006 320.400,207.200 320.580,207.200 320.800 C 207.200 321.020,207.364 321.200,207.565 321.200 C 207.766 321.200,208.928 322.190,210.148 323.400 C 211.367 324.610,212.530 325.600,212.731 325.600 C 212.932 325.600,214.003 326.477,215.110 327.550 C 216.216 328.622,217.815 330.017,218.661 330.649 C 219.507 331.280,220.677 332.293,221.260 332.899 C 221.844 333.504,222.435 334.000,222.575 334.000 C 222.839 334.000,223.243 334.347,226.653 337.501 C 229.566 340.195,230.341 340.799,230.905 340.811 C 231.177 340.817,232.120 341.647,233.000 342.656 C 233.880 343.666,235.408 345.049,236.395 345.730 C 237.383 346.412,238.929 347.696,239.832 348.585 C 241.837 350.557,243.528 352.000,243.834 352.000 C 243.960 352.000,244.754 352.720,245.600 353.600 C 246.446 354.480,247.246 355.200,247.379 355.200 C 247.609 355.200,249.548 356.860,251.362 358.609 C 251.823 359.053,252.830 359.861,253.600 360.404 C 254.370 360.946,255.900 362.245,257.000 363.291 C 258.100 364.336,259.130 365.194,259.289 365.196 C 259.449 365.198,260.389 366.010,261.379 367.000 C 262.369 367.990,263.280 368.800,263.404 368.800 C 263.642 368.800,264.082 369.184,267.662 372.518 C 268.907 373.677,270.437 374.889,271.062 375.212 C 272.332 375.868,273.200 376.602,273.200 377.019 C 273.200 377.392,275.541 379.467,276.900 380.299 C 277.505 380.670,278.000 381.114,278.000 381.286 C 278.000 381.459,278.186 381.600,278.413 381.600 C 278.641 381.600,279.423 382.185,280.152 382.900 C 280.880 383.615,282.336 384.920,283.386 385.800 C 284.436 386.680,285.678 387.764,286.147 388.209 C 286.616 388.653,287.566 389.417,288.257 389.906 C 288.949 390.394,290.299 391.573,291.257 392.525 C 292.216 393.478,293.630 394.687,294.400 395.213 C 295.170 395.739,296.250 396.631,296.800 397.195 C 297.350 397.759,298.700 398.936,299.800 399.811 C 300.900 400.685,302.277 401.895,302.860 402.500 C 303.444 403.105,304.023 403.600,304.147 403.600 C 304.393 403.600,306.512 405.442,308.633 407.500 C 309.370 408.215,310.159 408.800,310.387 408.800 C 310.614 408.800,310.800 408.950,310.800 409.132 C 310.800 409.315,311.295 409.720,311.900 410.032 C 313.127 410.665,314.000 411.405,314.000 411.811 C 314.000 412.379,317.027 414.775,317.521 414.597 C 317.807 414.494,317.946 414.563,317.830 414.752 C 317.713 414.940,318.182 415.523,318.872 416.047 C 320.067 416.955,321.857 418.538,324.689 421.192 C 325.397 421.857,326.069 422.400,326.182 422.400 C 326.370 422.400,327.766 423.571,329.655 425.315 C 330.081 425.708,330.630 425.905,330.876 425.753 C 331.124 425.600,331.213 425.655,331.076 425.877 C 330.817 426.297,332.036 427.540,334.400 429.269 C 335.170 429.832,336.783 431.217,337.985 432.346 C 339.186 433.476,340.310 434.400,340.482 434.400 C 340.654 434.400,341.892 435.480,343.232 436.800 C 344.573 438.120,345.834 439.200,346.035 439.200 C 346.236 439.200,347.382 440.190,348.583 441.400 C 349.783 442.610,350.953 443.600,351.183 443.600 C 351.412 443.600,351.600 443.780,351.600 444.000 C 351.600 444.220,351.870 444.400,352.200 444.400 C 352.530 444.400,352.800 444.580,352.800 444.800 C 352.800 445.020,353.070 445.200,353.400 445.200 C 353.730 445.200,354.000 445.380,354.000 445.600 C 354.000 445.820,354.360 446.000,354.800 446.000 C 355.240 446.000,355.600 446.148,355.600 446.330 C 355.600 446.729,359.991 448.800,360.838 448.800 C 361.169 448.800,361.665 449.025,361.940 449.300 C 362.306 449.666,364.525 449.800,370.200 449.800 C 375.875 449.800,378.094 449.666,378.460 449.300 C 378.735 449.025,379.338 448.800,379.800 448.800 C 380.262 448.800,380.811 448.644,381.020 448.453 C 381.229 448.262,382.255 447.787,383.300 447.398 C 384.345 447.009,385.200 446.536,385.200 446.346 C 385.200 446.156,385.436 446.000,385.725 446.000 C 386.013 446.000,386.636 445.640,387.108 445.200 C 387.580 444.760,388.151 444.400,388.376 444.400 C 388.766 444.400,390.221 443.218,392.131 441.350 C 393.352 440.157,394.109 439.163,394.768 437.894 C 395.080 437.292,395.485 436.800,395.668 436.800 C 395.850 436.800,396.000 436.440,396.000 436.000 C 396.000 435.560,396.167 435.200,396.371 435.200 C 396.798 435.200,398.000 432.941,398.000 432.139 C 398.000 431.842,398.180 431.600,398.400 431.600 C 398.620 431.600,398.800 431.186,398.800 430.680 C 398.800 430.174,399.025 429.535,399.300 429.260 C 399.699 428.861,399.800 388.337,399.800 229.313 C 399.800 70.112,399.699 29.833,399.300 29.700 C 399.025 29.608,398.800 29.044,398.800 28.447 C 398.800 27.849,398.651 27.189,398.470 26.980 C 398.288 26.771,397.900 25.838,397.607 24.906 C 397.315 23.974,396.756 22.922,396.365 22.568 C 395.974 22.214,395.751 21.672,395.870 21.362 C 395.988 21.053,395.886 20.800,395.643 20.800 C 395.399 20.800,395.200 20.440,395.200 20.000 C 395.200 19.560,395.020 19.200,394.800 19.200 C 394.580 19.200,394.400 18.964,394.400 18.675 C 394.400 18.387,394.040 17.764,393.600 17.292 C 393.160 16.820,392.800 16.338,392.800 16.221 C 392.800 15.107,384.152 6.919,381.900 5.902 C 381.295 5.628,380.800 5.269,380.800 5.102 C 380.800 4.936,380.440 4.800,380.000 4.800 C 379.560 4.800,379.200 4.620,379.200 4.400 C 379.200 4.180,378.840 4.000,378.400 4.000 C 377.960 4.000,377.600 3.820,377.600 3.600 C 377.600 3.380,377.169 3.200,376.643 3.200 C 376.116 3.200,375.582 2.930,375.455 2.600 C 375.329 2.270,374.769 2.000,374.213 2.000 C 373.656 2.000,373.200 1.820,373.200 1.600 C 373.200 1.380,372.786 1.200,372.280 1.200 C 371.774 1.200,371.135 0.975,370.860 0.700 C 370.382 0.222,34.783 -0.182,30.800 0.291 " stroke="none" fill="#5c5c5c" fill-rule="evenodd"></path><path id="path1" d="" stroke="none" fill="#605c5c" fill-rule="evenodd"></path><path id="path2" d="" stroke="none" fill="#605c5c" fill-rule="evenodd"></path><path id="path3" d="" stroke="none" fill="#605c5c" fill-rule="evenodd"></path><path id="path4" d="" stroke="none" fill="#605c5c" fill-rule="evenodd"></path></g></svg>