<?xml version="1.0" encoding="iso-8859-1"?>
<!-- Generator: Adobe Illustrator 19.0.0, SVG Export Plug-In . SVG Version: 6.00 Build 0)  -->
<svg version="1.1" id="Capa_1" xmlns="http://www.w3.org/2000/svg" xmlns:xlink="http://www.w3.org/1999/xlink" x="0px" y="0px"
	 viewBox="0 0 512 512" style="enable-background:new 0 0 512 512;" xml:space="preserve">
<path style="fill:#303C42;" d="M426.667,21.333h-384C19.135,21.333,0,40.469,0,64v384c0,23.531,19.135,42.667,42.667,42.667h384
	c23.531,0,42.667-19.135,42.667-42.667V64C469.333,40.469,450.198,21.333,426.667,21.333z"/>
<g>
	<path id="SVGCleanerId_0" style="fill:#5C6671;" d="M42.667,42.667h384C438.427,42.667,448,52.24,448,64v42.667H21.333V64
		C21.333,52.24,30.906,42.667,42.667,42.667z"/>
</g>
<g>
	
		<linearGradient id="SVGCleanerId_0_3_" gradientUnits="userSpaceOnUse" x1="-44.263" y1="646.7943" x2="-26.9841" y2="638.7372" gradientTransform="matrix(21.3333 0 0 -21.3333 996.3334 13791.667)">
		<stop  offset="0" style="stop-color:#FFFFFF;stop-opacity:0.2"/>
		<stop  offset="1" style="stop-color:#FFFFFF;stop-opacity:0"/>
	</linearGradient>
	<path id="SVGCleanerId_0_1_" style="fill:url(#SVGCleanerId_0_3_);" d="M42.667,42.667h384C438.427,42.667,448,52.24,448,64v42.667
		H21.333V64C21.333,52.24,30.906,42.667,42.667,42.667z"/>
</g>
<g>
	
		<linearGradient id="SVGCleanerId_0_4_" gradientUnits="userSpaceOnUse" x1="-41.3061" y1="648.2945" x2="-30.1002" y2="637.0877" gradientTransform="matrix(21.3333 0 0 -21.3333 996.3334 13791.667)">
		<stop  offset="0" style="stop-color:#FFFFFF;stop-opacity:0.2"/>
		<stop  offset="1" style="stop-color:#FFFFFF;stop-opacity:0"/>
	</linearGradient>
	<path id="SVGCleanerId_0_2_" style="fill:url(#SVGCleanerId_0_4_);" d="M42.667,42.667h384C438.427,42.667,448,52.24,448,64v42.667
		H21.333V64C21.333,52.24,30.906,42.667,42.667,42.667z"/>
</g>
<path style="fill:#FFFFFF;" d="M426.667,469.333h-384c-11.76,0-21.333-9.573-21.333-21.333V128H448v320
	C448,459.76,438.427,469.333,426.667,469.333z"/>
<g>
	<circle style="fill:#303C42;" cx="53.333" cy="74.667" r="10.667"/>
	<circle style="fill:#303C42;" cx="96" cy="74.667" r="10.667"/>
	<circle style="fill:#303C42;" cx="138.667" cy="74.667" r="10.667"/>
	<path style="fill:#303C42;" d="M352,234.667H117.333c-5.896,0-10.667-4.771-10.667-10.667c0-5.896,4.771-10.667,10.667-10.667H352
		c5.896,0,10.667,4.771,10.667,10.667C362.667,229.896,357.896,234.667,352,234.667z"/>
	<path style="fill:#303C42;" d="M330.646,298.667H117.333c-5.896,0-10.667-4.771-10.667-10.667c0-5.896,4.771-10.667,10.667-10.667
		h213.313c5.896,0,10.667,4.771,10.667,10.667C341.313,293.896,336.542,298.667,330.646,298.667z"/>
	<path style="fill:#303C42;" d="M245.333,362.667h-128c-5.896,0-10.667-4.771-10.667-10.667c0-5.896,4.771-10.667,10.667-10.667h128
		c5.896,0,10.667,4.771,10.667,10.667C256,357.896,251.229,362.667,245.333,362.667z"/>
	<path style="fill:#303C42;" d="M471.167,149.333c-10.771,0-21.292,4.365-28.875,11.958L312.458,291.104
		c-1.5,1.49-2.5,3.385-2.917,5.448l-10.667,53.354c-0.708,3.5,0.396,7.115,2.917,9.635c2.021,2.021,4.75,3.125,7.542,3.125
		c0.688,0,1.396-0.073,2.083-0.208l53.313-10.667c2.083-0.417,3.979-1.427,5.458-2.917l106.676-106.659c0,0,0.008-0.004,0.012-0.008
		s0.004-0.007,0.004-0.007l23.163-23.16c0,0,0,0,0-0.01c7.604-7.604,11.958-18.125,11.958-28.865
		C512,167.646,493.688,149.333,471.167,149.333z"/>
</g>
<polygon style="fill:#FFFFFF;" points="357.396,331.51 322.938,338.406 329.833,303.906 426.661,207.078 454.249,234.665 "/>
<path style="fill:#FFCA28;" d="M484.958,203.958l-15.625,15.625l-27.589-27.589l15.63-15.63c3.625-3.615,8.646-5.698,13.792-5.698
	c10.75,0,19.5,8.75,19.5,19.5C490.667,195.292,488.583,200.323,484.958,203.958z"/>
<linearGradient id="SVGID_1_" gradientUnits="userSpaceOnUse" x1="-29.8053" y1="632.3802" x2="-24.1009" y2="626.6718" gradientTransform="matrix(21.3333 0 0 -21.3333 996.3334 13791.667)">
	<stop  offset="0" style="stop-color:#000000;stop-opacity:0.1"/>
	<stop  offset="1" style="stop-color:#000000;stop-opacity:0"/>
</linearGradient>
<path style="fill:url(#SVGID_1_);" d="M364.729,351.792l-53.313,10.667c-0.688,0.135-1.396,0.208-2.083,0.208
	c-2.792,0-5.521-1.104-7.542-3.125l109.792,109.792h15.083c11.76,0,21.333-9.573,21.333-21.333V271.074l-77.813,77.801
	C368.708,350.365,366.813,351.375,364.729,351.792z"/>
<linearGradient id="SVGID_2_" gradientUnits="userSpaceOnUse" x1="-48.3554" y1="640.3845" x2="-23.0508" y2="628.5842" gradientTransform="matrix(21.3333 0 0 -21.3333 996.3334 13791.667)">
	<stop  offset="0" style="stop-color:#FFFFFF;stop-opacity:0.2"/>
	<stop  offset="1" style="stop-color:#FFFFFF;stop-opacity:0"/>
</linearGradient>
<path style="fill:url(#SVGID_2_);" d="M471.167,149.333c-0.618,0-1.217,0.155-1.833,0.184V64c0-23.531-19.135-42.667-42.667-42.667
	h-384C19.135,21.333,0,40.469,0,64v384c0,23.531,19.135,42.667,42.667,42.667h384c23.531,0,42.667-19.135,42.667-42.667V249.745
	l7.53-7.529c0,0,0.008-0.004,0.012-0.008s0.004-0.007,0.004-0.007l23.163-23.16c0,0,0,0,0-0.01
	c7.604-7.604,11.958-18.125,11.958-28.865C512,167.646,493.688,149.333,471.167,149.333z"/>
<g>
</g>
<g>
</g>
<g>
</g>
<g>
</g>
<g>
</g>
<g>
</g>
<g>
</g>
<g>
</g>
<g>
</g>
<g>
</g>
<g>
</g>
<g>
</g>
<g>
</g>
<g>
</g>
<g>
</g>
</svg>
