<?xml version="1.0" encoding="iso-8859-1"?>
<!-- Generator: Adobe Illustrator 19.0.0, SVG Export Plug-In . SVG Version: 6.00 Build 0)  -->
<svg xmlns="http://www.w3.org/2000/svg" xmlns:xlink="http://www.w3.org/1999/xlink" version="1.1" id="Capa_1" x="0px" y="0px" viewBox="0 0 512.013 512.013" style="enable-background:new 0 0 512.013 512.013;" xml:space="preserve" width="512px" height="512px">
<g>
	<g>
		<path d="M448.013,341.34v30.827c-1.536,6.368-11.819,43.84-42.667,43.84c-5.891,0-10.667,4.776-10.667,10.667v64H192.013v-74.667    c0-33.749-20.928-42.667-32-42.667h-64c-0.859,0.055-1.72,0.055-2.579,0c-11.07-0.712-19.467-10.263-18.754-21.333v-39.765    c-0.002-3.051-1.31-5.956-3.595-7.979c-10.694-9.866-24.536-15.625-39.072-16.256c-0.047,0.006-0.095,0.011-0.142,0.016    c-5.143,0.545-9.755-3.182-10.301-8.326l51.787-93.867c0.866-1.579,1.321-3.351,1.323-5.152v-20.672    C74.768,83.46,136.8,21.428,213.347,21.34V0.007c-88.324,0.1-159.9,71.676-160,160v17.931L1.336,272.188    c-0.866,1.579-1.321,3.351-1.323,5.152c-0.018,0.606-0.018,1.213,0,1.819c0.502,17.171,14.829,30.684,32,30.181    c7.758,0.431,15.2,3.218,21.333,7.989v34.677c-0.024,0.808-0.024,1.617,0,2.425c0.67,22.895,19.772,40.911,42.667,40.242h63.701    c1.824,0.117,10.965,1.696,10.965,21.333v85.333c0,5.891,4.776,10.667,10.667,10.667h224v0c5.891,0,10.667-4.776,10.667-10.667    v-64.939c33.344-6.304,49.237-41.483,53.12-60.928c0.143-0.702,0.214-1.417,0.213-2.133v-32H448.013z" fill="#3a454b"/>
	</g>
</g>
<g>
	<g>
		<path d="M341.347,0.007c-94.257,0-170.667,76.41-170.667,170.667S247.09,341.34,341.347,341.34    c94.21-0.112,170.555-76.456,170.667-170.667C512.013,76.417,435.603,0.007,341.347,0.007z M341.347,320.007    c-82.475,0-149.333-66.859-149.333-149.333S258.872,21.34,341.347,21.34c82.438,0.088,149.245,66.895,149.333,149.333    C490.68,253.148,423.821,320.007,341.347,320.007z" fill="#3a454b"/>
	</g>
</g>
<g>
	<g>
		<path d="M373.347,74.673h-64c-17.673,0-32,14.327-32,32v42.667h21.333v-42.667c0-5.891,4.776-10.667,10.667-10.667h64    c5.891,0,10.667,4.776,10.667,10.667v42.667c0,5.891-4.776,10.667-10.667,10.667h-32c-0.295-0.006-0.589-0.006-0.884,0    c-11.538,0.244-20.693,9.795-20.449,21.333v42.667h21.333V181.34h32c17.673,0,32-14.327,32-32v-42.667    C405.347,89,391.02,74.673,373.347,74.673z" fill="#3a454b"/>
	</g>
</g>
<g>
	<g>
		<rect x="320.013" y="245.34" width="21.333" height="21.333" fill="#3a454b"/>
	</g>
</g>
<g>
</g>
<g>
</g>
<g>
</g>
<g>
</g>
<g>
</g>
<g>
</g>
<g>
</g>
<g>
</g>
<g>
</g>
<g>
</g>
<g>
</g>
<g>
</g>
<g>
</g>
<g>
</g>
<g>
</g>
</svg>
